<svg xmlns="http://www.w3.org/2000/svg" width="512" height="512" viewBox="0 0 512 512" version="1.1">
	<path d="M 2 2 C 0.105 3.895, 0 5.333, 0 29.500 L 0 55 10 55 L 20 55 20 37.500 L 20 20 23.500 20 L 27 20 27 10 L 27 0 15.500 0 C 5.333 0, 3.768 0.232, 2 2 M 67 10 L 67 20 107 20 L 147 20 147 10 L 147 0 107 0 L 67 0 67 10 M 187 10 L 187 20 227 20 L 267 20 267 10 L 267 0 227 0 L 187 0 187 10 M 307 10 L 307 20 347 20 L 387 20 387 10 L 387 0 347 0 L 307 0 307 10 M 427 10 L 427 20 466.500 20 L 506 20 506.014 12.250 C 506.021 7.987, 506.299 3.488, 506.630 2.250 L 507.233 0 467.117 0 L 427 0 427 10 M 492 78 L 492 118 502 118 L 512 118 512 138 L 512 158 502 158 L 492 158 492 198 L 492 238 502 238 L 512 238 512 258 L 512 278 502 278 L 492 278 492 318 L 492 358 502 358 L 512 358 512 378 L 512 398 502 398 L 492 398 492 438 L 492 478 501.973 478 L 511.947 478 512.223 492.750 C 512.375 500.863, 512.592 427.175, 512.705 329 C 512.817 230.825, 512.651 125.188, 512.335 94.250 L 511.761 38 501.880 38 L 492 38 492 78 M 1 135 L 1 175 10.500 175 L 20 175 20 135 L 20 95 10.500 95 L 1 95 1 135 M 1 255 L 1 295 10.500 295 L 20 295 20 255 L 20 215 10.500 215 L 1 215 1 255 M 1 375 L 1 415 10.500 415 L 20 415 20 375 L 20 335 10.500 335 L 1 335 1 375 M 1 482.465 C 1 508.595, 1.094 509.980, 2.934 510.965 C 3.998 511.534, 9.623 512, 15.434 512 L 26 512 26 502 L 26 492 23 492 L 20 492 20 473.500 L 20 455 10.500 455 L 1 455 1 482.465 M 66 502 L 66 512 106 512 L 146 512 146 502 L 146 492 106 492 L 66 492 66 502 M 186 502 L 186 512 226 512 L 266 512 266 502 L 266 492 226 492 L 186 492 186 502 M 306 502 L 306 512 346 512 L 386 512 386 502 L 386 492 346 492 L 306 492 306 502 M 426 502 L 426 512 466 512 L 506 512 506 502 L 506 492 466 492 L 426 492 426 502" stroke="none" fill="black" fill-rule="evenodd"/>
</svg>