<?xml version="1.0" standalone="no"?>
<!DOCTYPE svg PUBLIC "-//W3C//DTD SVG 20010904//EN"
 "http://www.w3.org/TR/2001/REC-SVG-20010904/DTD/svg10.dtd">
<svg version="1.0" xmlns="http://www.w3.org/2000/svg"
 width="512.000000pt" height="512.000000pt" viewBox="0 0 512.000000 512.000000"
 preserveAspectRatio="xMidYMid meet">
<metadata>
Created by potrace 1.11, written by Peter Selinger 2001-2013
</metadata>
<g transform="translate(0.000000,512.000000) scale(0.100000,-0.100000)"
fill="#000000" stroke="none">
<path d="M20 5100 c-19 -19 -20 -33 -20 -277 l0 -258 98 0 97 0 3 178 2 177
35 0 35 0 0 100 0 100 -115 0 c-102 0 -117 -2 -135 -20z"/>
<path d="M670 5020 l0 -100 400 0 400 0 0 100 0 100 -400 0 -400 0 0 -100z"/>
<path d="M1870 5020 l0 -100 400 0 400 0 0 100 0 100 -400 0 -400 0 0 -100z"/>
<path d="M3070 5020 l0 -100 400 0 400 0 0 100 0 100 -400 0 -400 0 0 -100z"/>
<path d="M4270 5020 l0 -100 395 0 395 0 0 78 c0 42 3 87 6 100 l6 22 -401 0
-401 0 0 -100z"/>
<path d="M4924 4741 c-2 -2 -4 -183 -4 -402 l0 -397 100 1 100 0 0 399 c0 372
-1 398 -17 399 -64 3 -175 3 -179 0z"/>
<path d="M0 3766 l0 -401 97 1 98 0 3 400 2 400 -100 0 -100 0 0 -400z"/>
<path d="M4924 3541 c-2 -2 -4 -183 -4 -402 l0 -398 98 2 97 2 3 400 2 400
-96 0 c-52 0 -98 -2 -100 -4z"/>
<path d="M0 2566 l0 -401 100 0 100 0 -2 400 -3 400 -97 1 -98 1 0 -401z"/>
<path d="M4930 2342 c-6 -2 -10 -144 -10 -402 l0 -398 100 1 100 0 0 399 c0
372 -1 398 -17 399 -58 3 -164 3 -173 1z"/>
<path d="M0 1366 l0 -401 97 1 98 0 3 400 2 400 -100 0 -100 0 0 -400z"/>
<path d="M4958 1142 l-38 -3 0 -398 0 -398 98 1 97 1 3 398 c2 314 0 397 -10
398 -42 3 -118 4 -150 1z"/>
<path d="M0 303 c0 -324 -11 -303 150 -303 l110 0 0 100 0 100 -30 0 -30 0 0
183 0 184 -100 -1 -100 0 0 -263z"/>
<path d="M660 100 l0 -100 400 0 400 0 0 100 0 100 -400 0 -400 0 0 -100z"/>
<path d="M1860 100 l0 -100 400 0 400 0 0 100 0 100 -400 0 -400 0 0 -100z"/>
<path d="M3060 100 l0 -100 400 0 400 0 0 100 0 100 -400 0 -400 0 0 -100z"/>
<path d="M4260 100 l0 -100 400 0 400 0 0 100 0 100 -400 0 -400 0 0 -100z"/>
</g>
</svg>
